<svg xmlns="http://www.w3.org/2000/svg" viewBox="0 0 1918.37 395.93"><defs><style>.cls-1{opacity:0.78;}.cls-2,.cls-5{fill:#f7931e;}.cls-3{opacity:0.7;}.cls-4{fill:#fff;}.cls-5{opacity:0.9;}.cls-6{fill:#c97523;}.cls-7{fill:none;stroke:#e6e6e6;stroke-miterlimit:10;}</style></defs><title>bottom</title><g id="Layer_2" data-name="Layer 2"><g id="Layer_1-2" data-name="Layer 1"><g class="cls-1"><path class="cls-2" d="M0,215.12c0-25.19,350.16-34.1,477.62-35.89,206.76-2.91,627.1,16.3,808.84,36,101.55,11,260.06,46,328.81,64.35C1714.13,306,1914.81,392,1914.81,392c5,2.17,4.69,3.94-.81,3.94H0"/></g><g class="cls-3"><path class="cls-4" d="M43.41,70.66l274.21-.87C320.56,45,300.71,19.85,276,16.91S226,33.79,223.05,58.54a121.12,121.12,0,0,0-48.48-49c-16.24-8.88-36.8-13.72-53-4.7-17.41,9.73-23.42,31.42-27.82,50.87.26-9,.46-18.32-3.08-26.6s-11.93-15.2-20.86-14C59.38,16.44,53.27,27.51,50.21,37.61S44.87,59.07,36.5,65.51"/></g><path class="cls-5" d="M239,274.93C278.5,140.06,321.62,68.18,348.81,85.05,360.06,92,370,108.56,370,108.56c20.21,33.62,30.66,87.46,35,113.57"/><g class="cls-3"><path class="cls-6" d="M338.37,240.67a259.41,259.41,0,0,0-30.23-107.19c-3.64-6.82-14-.76-10.36,6.05a245.27,245.27,0,0,1,28.59,101.14c.46,7.68,12.46,7.73,12,0Z"/></g><g class="cls-3"><path class="cls-4" d="M447.33,116.93l-182.14-.57c-1.95-16.44,11.23-33.18,27.67-35.13S326,92.45,328,108.88a80.52,80.52,0,0,1,32.21-32.56c10.79-5.9,24.44-9.11,35.18-3.12C407,79.66,410.94,94.07,413.87,107c-.17-6-.31-12.17,2-17.67s7.93-10.1,13.86-9.32c7,.92,11,8.27,13,15s3.55,14.26,9.1,18.53"/></g><path class="cls-2" d="M30,379.93C100.87,138,178.21,9,227,39.29c20.18,12.52,38,42.17,38,42.17,36.24,60.32,55,156.91,62.8,203.75"/><path class="cls-7" d="M513,110.93a7.71,7.71,0,0,0-10.9,0"/><path class="cls-7" d="M502.1,110.93a7.71,7.71,0,0,0-10.9,0"/><path class="cls-7" d="M512,90.93a7,7,0,0,0-9.9,0"/><path class="cls-7" d="M502.1,90.93a7,7,0,0,0-9.9,0"/><path class="cls-7" d="M567,117.93a11.94,11.94,0,0,0-16.9,0"/><path class="cls-7" d="M550.1,117.93a11.94,11.94,0,0,0-16.9,0"/><path class="cls-7" d="M539,128.93a7.71,7.71,0,0,0-10.9,0"/><path class="cls-7" d="M528.1,128.93a7.71,7.71,0,0,0-10.9,0"/><path class="cls-7" d="M538,108.93a7,7,0,0,0-9.9,0"/><path class="cls-7" d="M528.1,108.93a7,7,0,0,0-9.9,0"/></g></g></svg>